<?xml version="1.0" encoding="UTF-8" standalone="no"?>
<svg
   xmlns:dc="http://purl.org/dc/elements/1.1/"
   xmlns:cc="http://creativecommons.org/ns#"
   xmlns:rdf="http://www.w3.org/1999/02/22-rdf-syntax-ns#"
   xmlns:svg="http://www.w3.org/2000/svg"
   xmlns="http://www.w3.org/2000/svg"
   xmlns:sodipodi="http://sodipodi.sourceforge.net/DTD/sodipodi-0.dtd"
   xmlns:inkscape="http://www.inkscape.org/namespaces/inkscape"
   viewBox="0 0 22 22"
   version="1.1"
   id="svg10"
   sodipodi:docname="kesdict-icon.svg"
   inkscape:version="0.92.2 5c3e80d, 2017-08-06"
   enable-background="new">
  <metadata
     id="metadata14">
    <rdf:RDF>
      <cc:Work
         rdf:about="">
        <dc:format>image/svg+xml</dc:format>
        <dc:type
           rdf:resource="http://purl.org/dc/dcmitype/StillImage" />
      </cc:Work>
    </rdf:RDF>
  </metadata>
  <sodipodi:namedview
     pagecolor="#ffffff"
     bordercolor="#666666"
     borderopacity="1"
     objecttolerance="10"
     gridtolerance="10"
     guidetolerance="10"
     inkscape:pageopacity="0"
     inkscape:pageshadow="2"
     inkscape:window-width="1920"
     inkscape:window-height="1022"
     id="namedview12"
     showgrid="false"
     inkscape:zoom="10.727273"
     inkscape:cx="-2.5635589"
     inkscape:cy="7.2711867"
     inkscape:window-x="0"
     inkscape:window-y="28"
     inkscape:window-maximized="1"
     inkscape:current-layer="layer1" />
  <defs
     id="defs3051">
    <style
       type="text/css"
       id="current-color-scheme">
      .ColorScheme-Text {
        color:#232629;
      }
      .ColorScheme-Highlight {
        color:#3daee9;
      }
      </style>
  </defs>
  <g
     inkscape:groupmode="layer"
     id="layer2"
     inkscape:label="bgrect"
     style="display:inline">
    <path
       style="fill:#d45500;stroke-width:0.09322034"
       d="M 0.93164062 0.65234375 L 0.92382812 0.65234375 L 0.92382812 10.859375 L 0.92382812 21.068359 L 11.130859 21.068359 L 21.337891 21.068359 L 21.337891 10.859375 L 21.337891 9.15625 A 12.26686 6.3434897 15.498854 0 1 20.845703 9.3261719 A 12.26686 6.3434897 15.498854 0 1 19.919922 9.5507812 A 12.26686 6.3434897 15.498854 0 1 18.921875 9.7109375 A 12.26686 6.3434897 15.498854 0 1 17.865234 9.8027344 A 12.26686 6.3434897 15.498854 0 1 16.755859 9.8242188 A 12.26686 6.3434897 15.498854 0 1 15.609375 9.7773438 A 12.26686 6.3434897 15.498854 0 1 14.435547 9.6621094 A 12.26686 6.3434897 15.498854 0 1 13.246094 9.4785156 A 12.26686 6.3434897 15.498854 0 1 12.052734 9.2304688 A 12.26686 6.3434897 15.498854 0 1 11.212891 9.0136719 A 12.26686 6.3434897 15.498854 0 1 10.039062 8.6582031 A 12.26686 6.3434897 15.498854 0 1 8.8964844 8.2460938 A 12.26686 6.3434897 15.498854 0 1 7.7910156 7.7792969 A 12.26686 6.3434897 15.498854 0 1 6.7363281 7.2636719 A 12.26686 6.3434897 15.498854 0 1 5.7441406 6.703125 A 12.26686 6.3434897 15.498854 0 1 4.8222656 6.1074219 A 12.26686 6.3434897 15.498854 0 1 3.9824219 5.4765625 A 12.26686 6.3434897 15.498854 0 1 3.2285156 4.8222656 A 12.26686 6.3434897 15.498854 0 1 2.5722656 4.1464844 A 12.26686 6.3434897 15.498854 0 1 2.0195312 3.4589844 A 12.26686 6.3434897 15.498854 0 1 1.5742188 2.765625 A 12.26686 6.3434897 15.498854 0 1 1.2421875 2.0742188 A 12.26686 6.3434897 15.498854 0 1 1.0273438 1.390625 A 12.26686 6.3434897 15.498854 0 1 0.9296875 0.72265625 A 12.26686 6.3434897 15.498854 0 1 0.93164062 0.65234375 z "
       id="path90" />
    <path
       style="fill:#ffcc00;stroke-width:0.09322034"
       d="M 0.93164062 0.65234375 A 12.26686 6.3434897 15.498854 0 0 0.9296875 0.72265625 A 12.26686 6.3434897 15.498854 0 0 1.0273438 1.390625 A 12.26686 6.3434897 15.498854 0 0 1.2421875 2.0742188 A 12.26686 6.3434897 15.498854 0 0 1.5742188 2.765625 A 12.26686 6.3434897 15.498854 0 0 2.0195312 3.4589844 A 12.26686 6.3434897 15.498854 0 0 2.5722656 4.1464844 A 12.26686 6.3434897 15.498854 0 0 3.2285156 4.8222656 A 12.26686 6.3434897 15.498854 0 0 3.9824219 5.4765625 A 12.26686 6.3434897 15.498854 0 0 4.8222656 6.1074219 A 12.26686 6.3434897 15.498854 0 0 5.7441406 6.703125 A 12.26686 6.3434897 15.498854 0 0 6.7363281 7.2636719 A 12.26686 6.3434897 15.498854 0 0 7.7910156 7.7792969 A 12.26686 6.3434897 15.498854 0 0 8.8964844 8.2460938 A 12.26686 6.3434897 15.498854 0 0 10.039062 8.6582031 A 12.26686 6.3434897 15.498854 0 0 11.212891 9.0136719 A 12.26686 6.3434897 15.498854 0 0 12.052734 9.2304688 A 12.26686 6.3434897 15.498854 0 0 13.246094 9.4785156 A 12.26686 6.3434897 15.498854 0 0 14.435547 9.6621094 A 12.26686 6.3434897 15.498854 0 0 15.609375 9.7773438 A 12.26686 6.3434897 15.498854 0 0 16.755859 9.8242188 A 12.26686 6.3434897 15.498854 0 0 17.865234 9.8027344 A 12.26686 6.3434897 15.498854 0 0 18.921875 9.7109375 A 12.26686 6.3434897 15.498854 0 0 19.919922 9.5507812 A 12.26686 6.3434897 15.498854 0 0 20.845703 9.3261719 A 12.26686 6.3434897 15.498854 0 0 21.337891 9.15625 L 21.337891 0.65234375 L 11.130859 0.65234375 L 0.93164062 0.65234375 z "
       id="path25" />
  </g>
  <g
     inkscape:groupmode="layer"
     id="layer1"
     inkscape:label="Text"
     style="opacity:1;">
    <text
       xml:space="preserve"
       style="font-style:normal;font-weight:normal;font-size:20.14790154px;line-height:1.25;font-family:sans-serif;letter-spacing:0px;word-spacing:0px;fill:#000000;fill-opacity:1;stroke:none;stroke-width:0.50369751"
       x="1.2742124"
       y="16.745657"
       id="text16"
       transform="scale(0.99965911,1.000341)"><tspan
         sodipodi:role="line"
         id="tspan14"
         x="1.2742124"
         y="16.745657"
         style="font-style:normal;font-variant:normal;font-weight:normal;font-stretch:normal;font-size:24px;font-family:'Ink Free';-inkscape-font-specification:'Ink Free';stroke-width:0.50369751">e</tspan></text>
    <text
       xml:space="preserve"
       style="font-style:normal;font-weight:normal;font-size:20.52049637px;line-height:1.25;font-family:sans-serif;letter-spacing:0px;word-spacing:0px;fill:#f2f2f2;fill-opacity:1;stroke:none;stroke-width:0.51301247"
       x="9.9479618"
       y="17.491545"
       id="text20"
       transform="scale(1.0921401,0.91563345)"><tspan
         sodipodi:role="line"
         id="tspan18"
         x="9.9479618"
         y="17.491545"
         style="font-style:normal;font-variant:normal;font-weight:normal;font-stretch:normal;font-family:'Ink Free';-inkscape-font-specification:'Ink Free';fill:#f2f2f2;stroke-width:0.51301247">s</tspan></text>
  </g>
</svg>
